<svg width="1600" height="900" viewBox="0 0 1600 900" fill="none" xmlns="http://www.w3.org/2000/svg">
  <rect width="1600" height="900" fill="#0B0F0C"/>
  <g opacity="0.14" fill="#34D399">
    <circle cx="120" cy="120" r="3"/>
    <circle cx="240" cy="120" r="3"/>
    <circle cx="360" cy="120" r="3"/>
    <circle cx="480" cy="120" r="3"/>
    <circle cx="600" cy="120" r="3"/>
    <circle cx="720" cy="120" r="3"/>
    <circle cx="840" cy="120" r="3"/>
    <circle cx="960" cy="120" r="3"/>
    <circle cx="1080" cy="120" r="3"/>
    <circle cx="1200" cy="120" r="3"/>
    <circle cx="1320" cy="120" r="3"/>
    <circle cx="1440" cy="120" r="3"/>
    <circle cx="1560" cy="120" r="3"/>
    <circle cx="180" cy="180" r="3"/>
    <circle cx="300" cy="180" r="3"/>
    <circle cx="420" cy="180" r="3"/>
    <circle cx="540" cy="180" r="3"/>
    <circle cx="660" cy="180" r="3"/>
    <circle cx="780" cy="180" r="3"/>
    <circle cx="900" cy="180" r="3"/>
    <circle cx="1020" cy="180" r="3"/>
    <circle cx="1140" cy="180" r="3"/>
    <circle cx="1260" cy="180" r="3"/>
    <circle cx="1380" cy="180" r="3"/>
    <circle cx="1500" cy="180" r="3"/>
    <circle cx="120" cy="240" r="3"/>
    <circle cx="240" cy="240" r="3"/>
    <circle cx="360" cy="240" r="3"/>
    <circle cx="480" cy="240" r="3"/>
    <circle cx="600" cy="240" r="3"/>
    <circle cx="720" cy="240" r="3"/>
    <circle cx="840" cy="240" r="3"/>
    <circle cx="960" cy="240" r="3"/>
    <circle cx="1080" cy="240" r="3"/>
    <circle cx="1200" cy="240" r="3"/>
    <circle cx="1320" cy="240" r="3"/>
    <circle cx="1440" cy="240" r="3"/>
    <circle cx="1560" cy="240" r="3"/>
    <circle cx="180" cy="300" r="3"/>
    <circle cx="300" cy="300" r="3"/>
    <circle cx="420" cy="300" r="3"/>
    <circle cx="540" cy="300" r="3"/>
    <circle cx="660" cy="300" r="3"/>
    <circle cx="780" cy="300" r="3"/>
    <circle cx="900" cy="300" r="3"/>
    <circle cx="1020" cy="300" r="3"/>
    <circle cx="1140" cy="300" r="3"/>
    <circle cx="1260" cy="300" r="3"/>
    <circle cx="1380" cy="300" r="3"/>
    <circle cx="1500" cy="300" r="3"/>
  </g>
</svg>
