<svg width="640" height="640" viewBox="0 0 640 640" fill="none" xmlns="http://www.w3.org/2000/svg">
  <defs>
    <linearGradient id="heroBlobGradient" x1="120" y1="120" x2="520" y2="520" gradientUnits="userSpaceOnUse">
      <stop offset="0" stop-color="#1A7A4A"/>
      <stop offset="0.55" stop-color="#34D399"/>
      <stop offset="1" stop-color="#F5C518"/>
    </linearGradient>
    <radialGradient id="heroBlobGlow" cx="0" cy="0" r="1" gradientUnits="userSpaceOnUse" gradientTransform="translate(320 320) rotate(90) scale(260)">
      <stop stop-color="#F8FAFC" stop-opacity="0.9"/>
      <stop offset="1" stop-color="#F8FAFC" stop-opacity="0"/>
    </radialGradient>
  </defs>
  <rect width="640" height="640" rx="180" fill="url(#heroBlobGlow)"/>
  <path d="M174 264C174 198.6 220.6 152 286 152H354C419.4 152 466 198.6 466 264V284C466 349.4 419.4 396 354 396H286C220.6 396 174 349.4 174 284V264Z" fill="url(#heroBlobGradient)" fill-opacity="0.9"/>
  <path d="M221 275C221 229.8 255.8 195 301 195H340C385.2 195 420 229.8 420 275V305C420 350.2 385.2 385 340 385H301C255.8 385 221 350.2 221 305V275Z" fill="#FFFFFF" fill-opacity="0.22"/>
  <path d="M267 432C267 399.4 292.4 374 325 374H331C363.6 374 389 399.4 389 432V444C389 476.6 363.6 502 331 502H325C292.4 502 267 476.6 267 444V432Z" fill="#FFFFFF" fill-opacity="0.16"/>
  <circle cx="237" cy="236" r="24" fill="#FFFFFF" fill-opacity="0.26"/>
  <circle cx="424" cy="237" r="18" fill="#FFFFFF" fill-opacity="0.18"/>
</svg>
